<?xml version="1.0" encoding="UTF-8"?>
<svg width="30px" height="32px" viewBox="0 0 30 32" version="1.1" xmlns="http://www.w3.org/2000/svg" xmlns:xlink="http://www.w3.org/1999/xlink">
    <title>icons/sur-mesure/confection</title>
    <g id="icons/sur-mesure/confection" stroke="none" stroke-width="1" fill="none" fill-rule="evenodd">
        <path d="M23.5273,2.13162821e-14 C23.9069958,2.13162821e-14 24.220791,0.282153882 24.2704534,0.648229443 L24.2773,0.75 L24.2773,30.7496 C24.2773,31.1638136 23.9415136,31.4996 23.5273,31.4996 C23.1476042,31.4996 22.833809,31.2174461 22.7841466,30.8513706 L22.7773,30.7496 L22.777,29.538 L21.738,29.538 L21.7383,30.7496 C21.7383,31.1638136 21.4025136,31.4996 20.9883,31.4996 C20.6086042,31.4996 20.294809,31.2174461 20.2451466,30.8513706 L20.2383,30.7496 L20.238,29.538 L19.198,29.538 L19.1982,30.7496 C19.1982,31.1638136 18.8624136,31.4996 18.4482,31.4996 C18.0685042,31.4996 17.754709,31.2174461 17.7050466,30.8513706 L17.6982,30.7496 L17.698,29.538 L16.659,29.538 L16.6592,30.7496 C16.6592,31.1638136 16.3234136,31.4996 15.9092,31.4996 C15.5295042,31.4996 15.215709,31.2174461 15.1660466,30.8513706 L15.1592,30.7496 L15.159,29.538 L14.119,29.538 L14.1191,30.7496 C14.1191,31.1638136 13.7833136,31.4996 13.3691,31.4996 C12.9894042,31.4996 12.675609,31.2174461 12.6259466,30.8513706 L12.6191,30.7496 L12.619,29.538 L11.579,29.538 L11.5791,30.7496 C11.5791,31.1638136 11.2433136,31.4996 10.8291,31.4996 C10.4494042,31.4996 10.135609,31.2174461 10.0859466,30.8513706 L10.0791,30.7496 L10.079,29.538 L9.039,29.538 L9.04,30.7496 C9.04,31.1638136 8.70421356,31.4996 8.29,31.4996 C7.91030423,31.4996 7.59650904,31.2174461 7.54684662,30.8513706 L7.54,30.7496 L7.539,29.538 L6.5,29.538 L6.5,30.7496 C6.5,31.1638136 6.16421356,31.4996 5.75,31.4996 C5.37030423,31.4996 5.05650904,31.2174461 5.00684662,30.8513706 L5,30.7496 L5,0.75 C5,0.335786438 5.33578644,2.13162821e-14 5.75,2.13162821e-14 C6.12969577,2.13162821e-14 6.44349096,0.282153882 6.49315338,0.648229443 L6.5,0.75 L6.5,1.961 L7.539,1.961 L7.54,0.75 C7.54,0.335786438 7.87578644,2.13162821e-14 8.29,2.13162821e-14 C8.66969577,2.13162821e-14 8.98349096,0.282153882 9.03315338,0.648229443 L9.04,0.75 L9.039,1.961 L10.079,1.961 L10.0791,0.75 C10.0791,0.335786438 10.4148864,2.13162821e-14 10.8291,2.13162821e-14 C11.2087958,2.13162821e-14 11.522591,0.282153882 11.5722534,0.648229443 L11.5791,0.75 L11.579,1.961 L12.619,1.961 L12.6191,0.75 C12.6191,0.335786438 12.9548864,2.13162821e-14 13.3691,2.13162821e-14 C13.7487958,2.13162821e-14 14.062591,0.282153882 14.1122534,0.648229443 L14.1191,0.75 L14.119,1.961 L15.159,1.961 L15.1592,0.75 C15.1592,0.335786438 15.4949864,2.13162821e-14 15.9092,2.13162821e-14 C16.2888958,2.13162821e-14 16.602691,0.282153882 16.6523534,0.648229443 L16.6592,0.75 L16.659,1.961 L17.698,1.961 L17.6982,0.75 C17.6982,0.335786438 18.0339864,2.13162821e-14 18.4482,2.13162821e-14 C18.8278958,2.13162821e-14 19.141691,0.282153882 19.1913534,0.648229443 L19.1982,0.75 L19.198,1.961 L20.238,1.961 L20.2383,0.75 C20.2383,0.335786438 20.5740864,2.13162821e-14 20.9883,2.13162821e-14 C21.3679958,2.13162821e-14 21.681791,0.282153882 21.7314534,0.648229443 L21.7383,0.75 L21.738,1.961 L22.777,1.961 L22.7773,0.75 C22.7773,0.335786438 23.1130864,2.13162821e-14 23.5273,2.13162821e-14 Z M10.814,3.46 L8.30519263,3.46084919 C8.30014051,3.46094957 8.29507615,3.461 8.29,3.461 L8.275,3.46 L6.5,3.461 L6.5,28.038 L22.777,28.038 L22.777,3.461 L21.0034926,3.46084919 C20.9984405,3.46094957 20.9933761,3.461 20.9883,3.461 L20.973,3.46 L18.4625221,3.46086599 C18.4577588,3.4609552 18.4529846,3.461 18.4482,3.461 L18.433,3.46 L15.9235221,3.46086599 C15.9187588,3.4609552 15.9139846,3.461 15.9092,3.461 L15.894,3.46 L13.3834221,3.46086599 C13.3786588,3.4609552 13.3738846,3.461 13.3691,3.461 L13.354,3.46 L10.8434221,3.46086599 C10.8386588,3.4609552 10.8338846,3.461 10.8291,3.461 L10.814,3.46 Z M14.6711,13.1819957 L18.1589354,19.2043248 L14.6711,22.6921602 L11.1832646,19.2043248 L14.6711,13.1819957 Z M14.671,16.175 L13.059,18.959 L14.671,20.571 L16.283,18.958 L14.671,16.175 Z M14.6713,8.13500459 L19.7213112,16.8546218 L18.4232888,17.6063782 L14.671,11.128 L10.9193112,17.6063782 L9.62128877,16.8546218 L14.6713,8.13500459 Z" id="Combined-Shape" fill="#58595B"></path>
    </g>
</svg>