<?xml version="1.0" encoding="UTF-8"?>
<svg width="30px" height="32px" viewBox="0 0 30 32" version="1.1" xmlns="http://www.w3.org/2000/svg" xmlns:xlink="http://www.w3.org/1999/xlink">
    <title>icons/sur-mesure/suivi</title>
    <g id="icons/sur-mesure/suivi" stroke="none" stroke-width="1" fill="none" fill-rule="evenodd">
        <path d="M8.616,5.19700244 C9.03021356,5.19700244 9.366,5.53278887 9.366,5.94700244 C9.366,6.3266982 9.08384612,6.6404934 8.71777056,6.69015582 L8.616,6.69700244 L6.749,6.69700244 L6.749,30.25 L23.779,30.25 L23.779,6.69700244 L21.91,6.69700244 C21.5303042,6.69700244 21.216509,6.41484855 21.1668466,6.04877299 L21.16,5.94700244 C21.16,5.56730667 21.4421539,5.25351147 21.8082294,5.20384905 L21.91,5.19700244 L23.851,5.19700244 C24.2374575,5.19700244 24.5873439,5.34068619 24.8583401,5.61168983 C25.0998065,5.85135422 25.2415401,6.15054259 25.2732005,6.48203555 L25.28,6.62600244 L25.28,30.3200024 C25.28,30.7095391 25.1328851,31.0629467 24.8643024,31.3253302 C24.625508,31.5677427 24.3265828,31.711073 23.9950176,31.7431179 L23.851,31.7500024 L6.68,31.7500024 C6.29191485,31.7500024 5.94020162,31.6038642 5.66566991,31.3293325 C5.42740211,31.0910647 5.28785569,30.7925513 5.25669201,30.463036 L5.25,30.3200024 L5.25,6.62600244 C5.25,6.24074392 5.39197702,5.89151309 5.66967224,5.60970001 C5.90992037,5.37303767 6.20802528,5.23456284 6.53713367,5.20364199 L6.68,5.19700244 L8.616,5.19700244 Z M21.4833301,22.7706723 C21.7495966,23.0369389 21.7738027,23.4536026 21.5559482,23.7472141 L21.4833301,23.8313325 L17.6793301,27.6353325 C17.4130635,27.9015991 16.9963998,27.9258051 16.7027883,27.7079507 L16.6186699,27.6353325 L14.4866699,25.5033325 C14.1937767,25.2104393 14.1937767,24.7355656 14.4866699,24.4426723 C14.7529365,24.1764058 15.1696002,24.1521997 15.4632117,24.3700542 L15.5473301,24.4426723 L17.149,26.044 L20.4226699,22.7706723 C20.7155631,22.4777791 21.1904369,22.4777791 21.4833301,22.7706723 Z M20.5,19.75 C20.9142136,19.75 21.25,20.0857864 21.25,20.5 C21.25,20.8796958 20.9678461,21.193491 20.6017706,21.2431534 L20.5,21.25 L10.5,21.25 C10.0857864,21.25 9.75,20.9142136 9.75,20.5 C9.75,20.1203042 10.0321539,19.806509 10.3982294,19.7568466 L10.5,19.75 L20.5,19.75 Z M20.5,15.75 C20.9142136,15.75 21.25,16.0857864 21.25,16.5 C21.25,16.8796958 20.9678461,17.193491 20.6017706,17.2431534 L20.5,17.25 L10.5,17.25 C10.0857864,17.25 9.75,16.9142136 9.75,16.5 C9.75,16.1203042 10.0321539,15.806509 10.3982294,15.7568466 L10.5,15.75 L20.5,15.75 Z M20.5,11.75 C20.9142136,11.75 21.25,12.0857864 21.25,12.5 C21.25,12.8796958 20.9678461,13.193491 20.6017706,13.2431534 L20.5,13.25 L10.5,13.25 C10.0857864,13.25 9.75,12.9142136 9.75,12.5 C9.75,12.1203042 10.0321539,11.806509 10.3982294,11.7568466 L10.5,11.75 L20.5,11.75 Z M15.265,0.249997088 L15.5076501,0.256565207 C16.4719384,0.310181924 17.3182349,0.691714421 18.0151875,1.38753118 C18.5394686,1.91351171 18.8869984,2.52274375 19.0512269,3.201334 L19.0512269,3.201334 L19.092,3.396 L20.378,3.39600244 C20.7576958,3.39600244 21.071491,3.67815632 21.1211534,4.04423188 L21.1211534,4.04423188 L21.128,4.14600244 L21.128,8.62400244 C21.128,9.038216 20.7922136,9.37400244 20.378,9.37400244 L20.378,9.37400244 L10.147,9.37400244 C9.73278644,9.37400244 9.397,9.038216 9.397,8.62400244 L9.397,8.62400244 L9.397,4.14600244 C9.397,3.73178887 9.73278644,3.39600244 10.147,3.39600244 L10.147,3.39600244 L11.437,3.396 L11.4778001,3.20241434 C11.6226283,2.59957369 11.9115694,2.05052574 12.3417615,1.56340989 L12.3417615,1.56340989 L12.5096991,1.38366041 C13.2690432,0.632917249 14.2011467,0.248776852 15.265,0.249997088 L15.265,0.249997088 Z M15.265862,1.74999757 C14.5957701,1.74923137 14.0430476,1.9770205 13.5707681,2.44387208 C13.0973859,2.92345236 12.869,3.47754462 12.869,4.14600244 C12.869,4.560216 12.5332136,4.89600244 12.119,4.89600244 L12.119,4.89600244 L10.896,4.896 L10.896,7.874 L19.627,7.874 L19.627,4.896 L18.411,4.89600244 C18.0313042,4.89600244 17.717509,4.61384855 17.6678466,4.24777299 L17.6678466,4.24777299 L17.661,4.14600244 C17.661,3.47907872 17.4308053,2.92601591 16.9541037,2.44776597 C16.481781,1.97621501 15.933241,1.74923251 15.265862,1.74999757 Z M15.2670776,2.08200531 C15.8278001,2.08355856 16.3260468,2.29274919 16.7173301,2.68867235 C17.115801,3.08714323 17.3230873,3.58850208 17.3200456,4.14188391 C17.3230983,4.70394259 17.1146469,5.20567183 16.721457,5.59417326 C16.3271487,5.99469115 15.8285285,6.20444429 15.2629224,6.20599956 C14.703164,6.20444898 14.2054184,5.99608098 13.8097537,5.60040815 C13.4122307,5.20599083 13.2025559,4.70715117 13.2010029,4.14392488 C13.2025503,3.5853112 13.4110559,3.08683366 13.8087007,2.68764358 C14.2065257,2.29136053 14.7038924,2.08355387 15.2670776,2.08200531 Z M15.264,3.581 L15.1746234,3.58831258 C15.0574118,3.60497268 14.9626855,3.65534321 14.8693629,3.74829773 C14.7516512,3.86646918 14.7014447,3.98649866 14.7009971,4.14391911 C14.7014406,4.30356082 14.7508432,4.42109524 14.8683301,4.53767235 C14.9866917,4.65603392 15.1049898,4.70555632 15.2629224,4.70600531 C15.4238181,4.70555962 15.5390947,4.65706651 15.6597925,4.53456806 C15.773415,4.42227184 15.8209012,4.30797558 15.8200343,4.14189532 C15.8209095,3.98208579 15.7726154,3.86527802 15.6535656,3.74620995 C15.5397759,3.63107627 15.4239482,3.58244561 15.264,3.581 L15.264,3.581 Z" id="Combined-Shape" fill="#58595B"></path>
    </g>
</svg>