<?xml version="1.0" encoding="UTF-8"?>
<svg width="30px" height="32px" viewBox="0 0 30 32" version="1.1" xmlns="http://www.w3.org/2000/svg" xmlns:xlink="http://www.w3.org/1999/xlink">
    <title>icons/sur-mesure/quality</title>
    <g id="icons/sur-mesure/quality" stroke="none" stroke-width="1" fill="none" fill-rule="evenodd">
        <path d="M12,0 C18.6272136,0 24,5.37278644 24,12 C24,14.5917415 23.1782854,16.9916307 21.78118,18.9533439 L30.9139301,28.0856699 C31.6948233,28.8665631 31.6948233,30.1334369 30.9139301,30.9143301 C30.5342728,31.2939873 30.0259957,31.5 29.4996,31.5 C29.0324037,31.5 28.5789297,31.3371048 28.2173866,31.0343669 L28.0862699,30.9143301 L18.9533439,21.78118 C16.9916307,23.1782854 14.5917415,24 12,24 C5.37278644,24 0,18.6272136 0,12 C0,5.37278644 5.37278644,0 12,0 Z M20.8319164,20.1238067 C20.6057815,20.3695244 20.3695244,20.6057815 20.1238067,20.8319164 L29.1469301,29.8536699 C29.2422859,29.9490257 29.3679458,30 29.4996,30 C29.6322043,30 29.7578769,29.9490629 29.8532699,29.8536699 C30.0266982,29.6802417 30.045968,29.410403 29.9110793,29.2155502 L29.8532699,29.1463301 Z M12,1.5 C6.20121356,1.5 1.5,6.20121356 1.5,12 C1.5,17.7987864 6.20121356,22.5 12,22.5 C17.7987864,22.5 22.5,17.7987864 22.5,12 C22.5,6.20121356 17.7987864,1.5 12,1.5 Z M11.9999,4.3749 C13.4896355,4.3749 14.9175977,4.80343104 16.1409208,5.59659959 C16.4884738,5.82194327 16.5875441,6.2863678 16.3622004,6.63392082 C16.1368567,6.98147384 15.6724322,7.08054409 15.3248792,6.85520041 C14.3428657,6.2184903 13.1979452,5.8749 11.9999,5.8749 C8.61711356,5.8749 5.8749,8.61711356 5.8749,11.9999 C5.8749,15.3826864 8.61711356,18.1249 11.9999,18.1249 C15.3826864,18.1249 18.1249,15.3826864 18.1249,11.9999 C18.1249,11.3967332 18.0377028,10.8047334 17.868278,10.2375682 C17.74972,9.84068427 17.9753478,9.42283601 18.3722318,9.30427802 C18.7691157,9.18572003 19.186964,9.41134781 19.305522,9.80823177 C19.5164052,10.5141831 19.6249,11.2507763 19.6249,11.9999 C19.6249,16.2111136 16.2111136,19.6249 11.9999,19.6249 C7.78868644,19.6249 4.3749,16.2111136 4.3749,11.9999 C4.3749,7.78868644 7.78868644,4.3749 11.9999,4.3749 Z M18.7803301,6.46966991 C19.0465966,6.73593648 19.0708027,7.15260016 18.8529482,7.44621165 L18.7803301,7.53033009 L12.5303301,13.7803301 C12.2640635,14.0465966 11.8473998,14.0708027 11.5537883,13.8529482 L11.4696699,13.7803301 L8.96966991,11.2803301 C8.6767767,10.9874369 8.6767767,10.5125631 8.96966991,10.2196699 C9.23593648,9.95340335 9.65260016,9.9291973 9.94621165,10.1470518 L10.0303301,10.2196699 L12,12.189 L17.7196699,6.46966991 C18.0125631,6.1767767 18.4874369,6.1767767 18.7803301,6.46966991 Z" id="Combined-Shape" fill="#58595B"></path>
    </g>
</svg>