<?xml version="1.0" encoding="UTF-8"?>
<svg width="30px" height="32px" viewBox="0 0 30 32" version="1.1" xmlns="http://www.w3.org/2000/svg" xmlns:xlink="http://www.w3.org/1999/xlink">
    <title>icons/sur-mesure/planification-livraison</title>
    <g id="icons/sur-mesure/planification-livraison" stroke="none" stroke-width="1" fill="none" fill-rule="evenodd">
        <path d="M21.4648,0.0001 C21.8444958,0.0001 22.158291,0.282253882 22.2079534,0.648329443 L22.2148,0.7501 L22.2145,1.8881 L24.9308,1.8882 C26.7968634,1.8882 28.322022,3.35152442 28.4216258,5.19335959 L28.4268,5.3852 L28.4267705,17.8048396 C29.7827248,19.2594314 30.6123,21.2111835 30.6123,23.3569 C30.6123,27.8542839 26.9663432,31.4999 22.4683,31.4999 C20.3233803,31.4999 18.3718923,30.6702498 16.9173589,29.3143614 L4.4975,29.3149 C2.63026412,29.3149 1.10433094,27.8523116 1.00467677,26.009814 L0.9995,25.8179 L0.9995,5.3849 C0.9995,3.51816287 2.46347552,1.99269864 4.305628,1.89307517 L4.4975,1.8879 L7.2115,1.8871 L7.2119,0.7501 C7.2119,0.335886438 7.54768644,0.0001 7.9619,0.0001 C8.34159577,0.0001 8.65539096,0.282253882 8.70505338,0.648329443 L8.7119,0.7501 L8.7115,1.8881 L20.7145,1.8881 L20.7148,0.7501 C20.7148,0.335886438 21.0505864,0.0001 21.4648,0.0001 Z M22.4683,16.7129 C18.8000136,16.7129 15.8253,19.6876136 15.8253,23.3569 C15.8253,27.0253254 18.8001525,29.9999 22.4683,29.9999 C26.1379475,29.9999 29.1123,27.0258254 29.1123,23.3569 C29.1123,19.6871136 26.1380864,16.7129 22.4683,16.7129 Z M26.9265,10.5401 L2.4995,10.5401 L2.4995,25.8179 C2.4995,26.8708818 3.3145761,27.7332062 4.34838885,27.8094237 L4.4975,27.8149 L15.6531103,27.8147941 C14.8135771,26.5340651 14.3253,25.0024434 14.3253,23.3569 C14.3253,18.8591864 17.9715864,15.2129 22.4683,15.2129 C24.11433,15.2129 25.6462161,15.7010874 26.9270846,16.5405885 L26.9265,10.5401 Z M22.4677,19.2661 C22.8473958,19.2661 23.161191,19.5482539 23.2108534,19.9143294 L23.2177,20.0161 L23.2175,22.6061 L24.7627,22.6069 C25.1769136,22.6069 25.5127,22.9426864 25.5127,23.3569 C25.5127,23.7365958 25.2305461,24.050391 24.8644706,24.1000534 L24.7627,24.1069 L22.4820221,24.106966 C22.4772588,24.1070552 22.4724846,24.1071 22.4677,24.1071 C22.0880042,24.1071 21.774209,23.8249461 21.7245466,23.4588706 L21.7177,23.3571 L21.7177,20.0161 C21.7177,19.6018864 22.0534864,19.2661 22.4677,19.2661 Z M7.2115,3.3871 L4.4975,3.3879 C3.44457761,3.3879 2.58128805,4.20291959 2.50498264,5.23591141 L2.4995,5.3849 L2.4995,9.0401 L26.9265,9.0401 L26.9268,5.3852 C26.9268,4.33264757 26.1121335,3.46993284 25.0797065,3.39367892 L24.9308,3.3882 L22.2145,3.3881 L22.2148,4.3701 C22.2148,4.78431356 21.8790136,5.1201 21.4648,5.1201 C21.0851042,5.1201 20.771309,4.83794612 20.7216466,4.47187056 L20.7148,4.3701 L20.7145,3.3881 L8.7115,3.3881 L8.7119,4.3701 C8.7119,4.78431356 8.37611356,5.1201 7.9619,5.1201 C7.58220423,5.1201 7.26840904,4.83794612 7.21874662,4.47187056 L7.2119,4.3701 L7.2115,3.3871 Z" id="Combined-Shape" fill="#58595B"></path>
    </g>
</svg>