<?xml version="1.0" encoding="UTF-8"?>
<svg width="30px" height="32px" viewBox="0 0 30 32" version="1.1" xmlns="http://www.w3.org/2000/svg" xmlns:xlink="http://www.w3.org/1999/xlink">
    <title>icons/sur-mesure/deliver</title>
    <g id="icons/sur-mesure/deliver" stroke="none" stroke-width="1" fill="none" fill-rule="evenodd">
        <path d="M33.7209366,16.9685836 C34.4909291,18.4061623 33.883923,20.2202303 32.4202866,21.1088449 L32.2541616,21.2037052 L19.0251616,28.2957052 L18.8527017,28.3623069 L18.1527017,28.5373069 L17.991035,28.559427 L5.759,28.889 L5.70378511,28.9103387 C5.57037859,28.962782 5.3781731,29.0529643 5.1364384,29.1903843 L4.98552822,29.2785808 C4.25618018,29.716161 3.48091116,30.3583153 2.69700382,31.246114 C2.42284193,31.5566106 1.94888259,31.5860657 1.63838599,31.3119038 C1.3278894,31.0377419 1.2984343,30.5637826 1.57259618,30.253286 C3.02714046,28.6059708 4.36132062,27.7667828 5.28770364,27.4638939 L5.43054384,27.4204864 L5.61256503,27.392973 L17.872,27.061 L18.396,26.93 L31.5454406,19.8816937 C32.3783712,19.4351672 32.7469572,18.5149422 32.4570599,17.8011716 L32.3990266,17.6774936 C32.0455888,17.0192453 31.1603139,16.8031291 30.281967,17.200072 L30.1271462,17.2765194 L23.7511462,20.5355194 C23.3823197,20.7240397 22.9305009,20.5778727 22.7419806,20.2090462 C22.5691703,19.8709553 22.6775904,19.4631277 22.9809507,19.2522957 L23.0684538,19.1998806 L29.4312172,15.9478134 C31.0282189,15.0909806 32.9239029,15.4841743 33.7209366,16.9685836 Z M8.85945904,17.4081335 L9.14626819,17.4659896 L9.36873082,17.5188039 L9.51581992,17.5604599 C9.9324856,17.6702623 10.4972207,17.7654166 11.1677714,17.8440686 C11.6041467,17.895253 12.0657291,17.9373529 12.5338068,17.9711727 L13.4354133,18.0261899 L13.8115451,18.0427 L18.6547,18.0417 C20.4906958,18.0417 22.0277,19.3839012 22.0277,21.0817 C22.0277,22.7208812 20.5949927,24.0277743 18.8435261,24.1159558 L18.6547,24.1207 L11.9557,24.1207 C11.5414864,24.1207 11.2057,23.7849136 11.2057,23.3707 C11.2057,22.9910042 11.4878539,22.677209 11.8539294,22.6275466 L11.9557,22.6207 L18.6547,22.6207 C19.7043691,22.6207 20.5277,21.9021528 20.5277,21.0817 C20.5277,20.3041409 19.7884846,19.617691 18.8185583,19.547587 L18.6548549,19.5417 L13.7877924,19.5423189 L13.1014857,19.5105237 L12.9129807,19.4995372 C12.2597885,19.4601104 11.6061378,19.4057698 10.9930275,19.3338553 C10.2584996,19.2476992 9.630433,19.141874 9.10007678,19.0012728 L8.95580511,18.9617553 L8.72888554,18.9108039 C8.68455651,18.9017253 8.63706749,18.8924449 8.58656032,18.8831001 C7.34724708,18.653802 6.00171368,18.7001749 4.75917933,19.2056921 C4.49871036,19.3116623 4.24711677,19.4368642 4.0050272,19.5822736 L3.805,19.709 L-1.74241362,24.8155618 C-2.01949076,25.0705599 -2.43679976,25.0774701 -2.72112646,24.8476297 L-2.80216178,24.7715864 C-3.05715988,24.4945092 -3.06407006,24.0772002 -2.83422967,23.7928735 L-2.75818638,23.7118382 L2.83881362,18.5608382 L2.92727107,18.4909449 C3.32874934,18.2201122 3.75201713,17.9960597 4.19390582,17.8162801 C5.74047894,17.1870666 7.3624953,17.1311649 8.85945904,17.4081335 Z M24.7175,0.0005 C25.0971958,0.0005 25.410991,0.282653882 25.4606534,0.648729443 L25.4675,0.7505 L25.4675,16.2295 C25.4675,16.6437136 25.1317136,16.9795 24.7175,16.9795 C24.3378042,16.9795 24.024009,16.6973461 23.9743466,16.3312706 L23.9675,16.2295 L23.967,1.5 L18.255696,1.4995 L18.2565,5.3424 C18.2565,5.72209577 17.9743461,6.03589096 17.6082706,6.08555338 L17.5065,6.0924 L13.5695,6.0924 C13.1898042,6.0924 12.876009,5.81024612 12.8263466,5.44417056 L12.8195,5.3424 L12.818696,1.4995 L7.109,1.5 L7.1095,15.5595 C7.1095,15.9391958 6.82734612,16.252991 6.46127056,16.3026534 L6.3595,16.3095 C5.97980423,16.3095 5.66600904,16.0273461 5.61634662,15.6612706 L5.6095,15.5595 L5.6095,0.7505 C5.6095,0.370804234 5.89165388,0.0570090391 6.25772944,0.007346616 L6.3595,0.0005 L24.7175,0.0005 Z M16.755696,1.4995 L14.318696,1.4995 L14.319,4.592 L16.756,4.592 L16.755696,1.4995 Z" id="Combined-Shape" fill="#58595B"></path>
    </g>
</svg>