<?xml version="1.0" encoding="UTF-8"?>
<svg width="30px" height="32px" viewBox="0 0 30 32" version="1.1" xmlns="http://www.w3.org/2000/svg" xmlns:xlink="http://www.w3.org/1999/xlink">
    <title>icons/sur-mesure/customisation</title>
    <g id="icons/sur-mesure/customisation" stroke="none" stroke-width="1" fill="none" fill-rule="evenodd">
        <path d="M28.3820301,25.2443699 L31.0553602,27.9177 L28.3820301,30.5910301 L27.3213699,29.5303699 L28.1830462,28.6677398 L8.23304616,28.6677398 L9.09670636,29.5304462 L8.03629364,30.5913538 L5.36159233,27.9179 L8.03629364,25.2444462 L9.09670636,26.3053538 L8.23204616,27.1677398 L28.1830462,27.1677398 L27.3213699,26.3050301 L28.3820301,25.2443699 Z M2.6734,-1.00026017 L5.34673009,1.67306991 L4.28606991,2.73373009 L3.42204616,1.86973983 L3.42204616,21.8207398 L4.28629364,20.9586462 L5.34670636,22.0195538 L2.67225253,24.6927602 L4.6164233e-05,22.0193063 L1.06095384,20.9588937 L1.92204616,21.8217398 L1.92204616,1.86973983 L1.06073009,2.73373009 L6.99141022e-05,1.67306991 L2.1351832,-0.461836838 C2.14013856,-0.466934243 2.14516576,-0.471961441 2.15026316,-0.476916797 L2.6734,-1.00026017 Z M28.9234,-0.6888 C29.6474875,-0.6888 30.3100159,-0.263258391 30.6162185,0.394579328 C30.8974322,1.00310737 30.8289598,1.71174492 30.4483622,2.25554073 L30.3467319,2.38790215 L30.2927845,2.45714557 C30.2311843,2.54540429 30.2094,2.62213754 30.2094,2.7442 C30.2094,2.91678011 30.2418931,2.9925533 30.4332493,3.1921185 L30.5253538,3.28586869 L30.6626086,3.42721209 C31.0941492,3.88677353 31.2804,4.25486052 31.2804,4.8872 C31.2804,5.52005508 31.0940386,5.88845067 30.6622968,6.34824514 L30.5253538,6.48928131 L30.3605484,6.6616474 C30.2332072,6.80620464 30.2094,6.88276539 30.2094,7.0302 C30.2094,7.20220705 30.2418042,7.27774689 30.4329649,7.4770893 L30.6622968,7.71215486 C31.0940386,8.17194933 31.2804,8.54034492 31.2804,9.1732 C31.2804,9.80553948 31.0941492,10.1736265 30.6626086,10.6331879 L30.5257287,10.7741563 L30.3605974,10.9468735 C30.2332725,11.0914718 30.2094,11.1682742 30.2094,11.3162 C30.2094,11.488207 30.2418042,11.5637469 30.4329649,11.7630893 L30.6622968,11.9981549 C31.0940386,12.4579493 31.2804,12.8263449 31.2804,13.4592 C31.2804,14.0918046 31.0940837,14.4598412 30.6622161,14.9195207 L30.5252301,15.0605301 L30.3604892,15.2327504 C30.2331979,15.3771916 30.2094,15.4537238 30.2094,15.6012 C30.2094,15.7737801 30.2418931,15.8495533 30.4332493,16.0491185 L30.5253538,16.1428687 L30.6626086,16.2842121 C31.0941492,16.7437735 31.2804,17.1118605 31.2804,17.7442 C31.2804,18.3770551 31.0940386,18.7454507 30.6622968,19.2052451 L30.5253538,19.3462813 L30.3605484,19.5186474 C30.2332072,19.6632046 30.2094,19.7397654 30.2094,19.8872 C30.2094,20.0563019 30.2414642,20.1308201 30.4311632,20.3281511 L30.52248,20.4208745 L30.6616521,20.5638368 C31.0502088,20.9768549 31.2405492,21.3173439 31.2747318,21.8428322 L31.2804,22.0252 L31.2740019,22.1807703 C31.2188385,22.8490425 30.8107036,23.4354223 30.1949502,23.7199715 C29.586465,23.9989244 28.879162,23.9305135 28.3297894,23.5463049 L28.195885,23.4436919 L28.1305893,23.3917488 C28.0469487,23.3323882 27.9723689,23.3112 27.8514,23.3112 C27.7572241,23.3112 27.6935277,23.3261616 27.6267328,23.3594828 C27.6024904,23.3711981 27.5786969,23.3853804 27.5515859,23.405243 L27.5079604,23.4396985 L27.3944804,23.5438096 L27.1696294,23.7636502 C26.7098339,24.1959192 26.3435598,24.3822 25.7144,24.3822 C25.0815449,24.3822 24.7131493,24.1958386 24.2533549,23.7640968 L24.1123187,23.6271538 L24.0182893,23.5347649 C23.8189469,23.3436042 23.743407,23.3112 23.5714,23.3112 C23.4713332,23.3112 23.4068251,23.326208 23.341003,23.3588675 L23.3251704,23.3670186 L23.3251704,23.3670186 L23.3091069,23.3762868 L23.2363754,23.4298827 L23.214531,23.4487507 L23.214531,23.4487507 L23.1906052,23.4703416 L22.883681,23.7689968 C22.4266306,24.19646 22.057638,24.3822 21.4284,24.3822 C20.7955449,24.3822 20.4271493,24.1958386 19.9673549,23.7640968 L19.8263187,23.6271538 L19.7322893,23.5347649 C19.5329469,23.3436042 19.457407,23.3112 19.2854,23.3112 C19.1857049,23.3112 19.1222261,23.3260088 19.0547328,23.3594828 C19.0264565,23.3731475 18.9986638,23.3907822 18.9634655,23.419221 L18.9041275,23.4708366 L18.6036223,23.7636123 C18.1436266,24.1957804 17.7753834,24.3822 17.1424,24.3822 C16.5097954,24.3822 16.1417588,24.1958837 15.6820793,23.7640161 L15.5410699,23.6270301 L15.4473722,23.5349283 C15.2479484,23.3435915 15.1724556,23.3112 15.0004,23.3112 C14.8996721,23.3112 14.8356708,23.3260901 14.7687328,23.3594828 C14.7198218,23.3831193 14.6716087,23.4195172 14.581974,23.5051245 L14.5063232,23.5791262 L14.3345822,23.7473497 C13.8637456,24.1926605 13.4946582,24.3822 12.8564,24.3822 C12.2237954,24.3822 11.8557588,24.1958837 11.3960793,23.7640161 L11.2550699,23.6270301 L11.1613722,23.5349283 C10.9619484,23.3435915 10.8864556,23.3112 10.7144,23.3112 C10.6139523,23.3112 10.550509,23.3259804 10.4837328,23.3594828 L10.4521051,23.3766614 L10.4521051,23.3766614 L10.4183622,23.3992536 L10.3349957,23.4689047 L10.0332858,23.7624065 C9.62087696,24.1509238 9.27910629,24.3421427 8.75368946,24.3765013 L8.5714,24.3822 L8.54176002,24.3822 C7.81709984,24.3738016 7.16086807,23.9444735 6.86368458,23.284247 C6.59205977,22.6765441 6.66229512,21.9760422 7.04449934,21.431907 L7.14653245,21.2992751 L7.19919884,21.2328679 C7.25929838,21.1481501 7.2804,21.0739719 7.2804,20.9532 C7.2804,20.7811857 7.24790206,20.705546 7.05704717,20.5070199 L6.96518997,20.4137744 L6.82807807,20.272962 C6.39582024,19.8139256 6.2094,19.4464608 6.2094,18.8162 C6.2094,18.1840488 6.39737949,17.8119246 6.82629762,17.3562176 L6.96225418,17.2166544 L7.05001115,17.1275373 C7.16427376,17.0086597 7.21571072,16.9403596 7.2426628,16.8730456 L7.25888502,16.82197 L7.27588753,16.7570292 L7.27948705,16.7180557 L7.2780422,16.6045209 C7.26766232,16.4737758 7.21858319,16.3930204 7.04614678,16.2144708 L6.96444616,16.1315313 L6.82719142,15.9901879 C6.39565081,15.5306265 6.2094,15.1625395 6.2094,14.5302 C6.2094,14.1190822 6.31588097,13.758434 6.51785658,13.451014 C6.61276629,13.3052249 6.70131605,13.1986071 6.84500432,13.0497268 L6.96406991,12.9288699 L6.995,12.901 L7.10324399,12.7873147 L7.17925421,12.6961314 L7.219,12.639 L7.24260665,12.5974494 L7.26375335,12.5372034 L7.26375335,12.5372034 L7.27627594,12.4684974 L7.2804,12.3872 C7.2804,12.215193 7.24799578,12.1396531 7.05683514,11.9403107 L6.96482099,11.8466563 L6.82750319,11.7052451 C6.39576138,11.2454507 6.2094,10.8770551 6.2094,10.2442 C6.2094,10.0541102 6.23330495,9.8715259 6.27375975,9.73548286 C6.36610558,9.35686495 6.51991732,9.11169593 6.8048993,8.80673972 L6.93526849,8.67182039 L7.0594661,8.54649573 C7.2474039,8.34956882 7.2804,8.27259603 7.2804,8.1012 C7.2804,7.92914441 7.24800847,7.85365158 7.05667169,7.65422785 L6.96456991,7.56053009 L6.82758387,7.41952074 C6.43890304,7.00580917 6.24911877,6.66632834 6.21504872,6.14140055 L6.2094,5.9592 L6.21584646,5.76411995 C6.25199909,5.24394935 6.44133867,4.90740082 6.82821816,4.49592358 L6.96455512,4.3556347 L7.12929278,4.18344471 C7.25658144,4.03907569 7.2804,3.96277234 7.2804,3.8162 C7.2804,3.6448919 7.24734093,3.56778562 7.06242739,3.37453804 L6.97353518,3.28399371 L6.82231944,3.12913557 C6.56682236,2.85829138 6.41643154,2.63957337 6.31864038,2.33721042 L6.27388502,2.17842997 L6.271,2.162 L6.25405293,2.10323474 L6.22815773,1.96599909 L6.22815773,1.96599909 L6.21381743,1.82356636 L6.2094,1.6732 C6.2094,0.94066904 6.63141902,0.2792399 7.29484984,-0.0265715122 C7.90606374,-0.306775368 8.61492415,-0.236174023 9.14842285,0.141344145 L9.27798617,0.242092389 L9.35030272,0.297079653 C9.44198315,0.359891249 9.51929407,0.3822 9.6374,0.3822 C9.80993888,0.3822 9.88585881,0.349600636 10.0845265,0.158725947 L10.1778245,0.0668657811 L10.3203799,-0.0719269485 C10.77789,-0.502446132 11.1454039,-0.6888 11.7754,-0.6888 C12.4077395,-0.6888 12.7758265,-0.502549189 13.2353879,-0.0710085773 L13.3763563,0.0658713393 L13.4704815,0.158350702 C13.6700467,0.349706901 13.7458199,0.3822 13.9184,0.3822 C14.0904556,0.3822 14.1659484,0.349808474 14.3653722,0.158471694 L14.4590699,0.0663699141 L14.6000793,-0.070616135 C15.0597588,-0.502483718 15.4277954,-0.6888 16.0604,-0.6888 C16.6932551,-0.6888 17.0616507,-0.502438619 17.5214451,-0.0706968102 L17.6624813,0.0662461642 L17.7565107,0.158635137 C17.9558531,0.349795785 18.031393,0.3822 18.2034,0.3822 C18.3759801,0.3822 18.4517533,0.349706901 18.6513185,0.158350702 L18.7450687,0.0662461642 L18.8861303,-0.0707269657 C19.3459735,-0.502549189 19.7140605,-0.6888 20.3464,-0.6888 C20.9792551,-0.6888 21.3476507,-0.502438619 21.8074451,-0.0706968102 L21.9484813,0.0662461642 L22.0425107,0.158635137 C22.2418531,0.349795785 22.317393,0.3822 22.4894,0.3822 C22.661407,0.3822 22.7369469,0.349795785 22.9362893,0.158635137 L23.0299437,0.0666209892 L23.1713549,-0.0706968102 C23.6311493,-0.502438619 23.9995449,-0.6888 24.6324,-0.6888 C25.2647395,-0.6888 25.6328265,-0.502549189 26.0923879,-0.0710085773 L26.2333563,0.0658713393 L26.3274815,0.158350702 C26.5270467,0.349706901 26.6028199,0.3822 26.7754,0.3822 C26.947407,0.3822 27.0229469,0.349795785 27.2222893,0.158635137 L27.3159437,0.0666209892 L27.4573549,-0.0706968102 C27.9171493,-0.502438619 28.2855449,-0.6888 28.9234,-0.6888 Z M24.638,20.4174 C24.934,20.4174 25.173,20.6574 25.173,20.9534 C25.173,21.2494 24.934,21.4894 24.638,21.4894 C24.341,21.4894 24.102,21.2494 24.102,20.9534 C24.102,20.6574 24.341,20.4174 24.638,20.4174 Z M20.3518,20.4174 C20.6478,20.4174 20.8878,20.6574 20.8878,20.9534 C20.8878,21.2494 20.6478,21.4894 20.3518,21.4894 C20.0558,21.4894 19.8168,21.2494 19.8168,20.9534 C19.8168,20.6574 20.0558,20.4174 20.3518,20.4174 Z M16.0667,20.4174 C16.3627,20.4174 16.6017,20.6574 16.6017,20.9534 C16.6017,21.2494 16.3627,21.4894 16.0667,21.4894 C15.7697,21.4894 15.5307,21.2494 15.5307,20.9534 C15.5307,20.6574 15.7697,20.4174 16.0667,20.4174 Z M11.7805,20.4174 C12.0765,20.4174 12.3165,20.6574 12.3165,20.9534 C12.3165,21.2494 12.0765,21.4894 11.7805,21.4894 C11.4845,21.4894 11.2445,21.2494 11.2445,20.9534 C11.2445,20.6574 11.4845,20.4174 11.7805,20.4174 Z M13.9231,18.2749 C14.2191,18.2749 14.4591,18.5149 14.4591,18.8109 C14.4591,19.1069 14.2191,19.3469 13.9231,19.3469 C13.6271,19.3469 13.3881,19.1069 13.3881,18.8109 C13.3881,18.5149 13.6271,18.2749 13.9231,18.2749 Z M26.7805,18.2749 C27.0765,18.2749 27.3165,18.5149 27.3165,18.8109 C27.3165,19.1069 27.0765,19.3469 26.7805,19.3469 C26.4845,19.3469 26.2445,19.1069 26.2445,18.8109 C26.2445,18.5149 26.4845,18.2749 26.7805,18.2749 Z M22.4944,18.2749 C22.7914,18.2749 23.0304,18.5149 23.0304,18.8109 C23.0304,19.1069 22.7914,19.3469 22.4944,19.3469 C22.1984,19.3469 21.9594,19.1069 21.9594,18.8109 C21.9594,18.5149 22.1984,18.2749 22.4944,18.2749 Z M9.638,18.2749 C9.934,18.2749 10.173,18.5149 10.173,18.8109 C10.173,19.1069 9.934,19.3469 9.638,19.3469 C9.341,19.3469 9.102,19.1069 9.102,18.8109 C9.102,18.5149 9.341,18.2749 9.638,18.2749 Z M18.2092,18.2749 C18.5052,18.2749 18.7442,18.5149 18.7442,18.8109 C18.7442,19.1069 18.5052,19.3469 18.2092,19.3469 C17.9132,19.3469 17.6732,19.1069 17.6732,18.8109 C17.6732,18.5149 17.9132,18.2749 18.2092,18.2749 Z M11.7805,16.6674 C12.0765,16.6674 12.3165,16.9074 12.3165,17.2034 C12.3165,17.4994 12.0765,17.7394 11.7805,17.7394 C11.4845,17.7394 11.2445,17.4994 11.2445,17.2034 C11.2445,16.9074 11.4845,16.6674 11.7805,16.6674 Z M16.0667,16.6674 C16.3627,16.6674 16.6017,16.9074 16.6017,17.2034 C16.6017,17.4994 16.3627,17.7394 16.0667,17.7394 C15.7697,17.7394 15.5307,17.4994 15.5307,17.2034 C15.5307,16.9074 15.7697,16.6674 16.0667,16.6674 Z M20.3518,16.6674 C20.6478,16.6674 20.8878,16.9074 20.8878,17.2034 C20.8878,17.4994 20.6478,17.7394 20.3518,17.7394 C20.0558,17.7394 19.8168,17.4994 19.8168,17.2034 C19.8168,16.9074 20.0558,16.6674 20.3518,16.6674 Z M24.638,16.6674 C24.934,16.6674 25.173,16.9074 25.173,17.2034 C25.173,17.4994 24.934,17.7394 24.638,17.7394 C24.341,17.7394 24.102,17.4994 24.102,17.2034 C24.102,16.9074 24.341,16.6674 24.638,16.6674 Z M8.69891247,17.2313708 L8.71504616,17.1717398 C8.63419853,17.512446 8.50863351,17.7401885 8.28629631,17.997845 L8.16681835,18.1297966 L7.85894607,18.4483084 C7.73355513,18.5906717 7.7094,18.6681237 7.7094,18.8162 C7.7094,18.9853496 7.74145204,19.0598219 7.93132657,19.257234 L8.02273065,19.3500006 L8.16157079,19.4925607 C8.5934256,19.951354 8.7804,20.3203631 8.7804,20.9532 C8.7804,21.4893491 8.60508759,21.9049472 8.28857643,22.2717157 C8.1947374,22.3833808 8.17317698,22.5380534 8.2323084,22.6703538 C8.27759371,22.7709592 8.36932764,22.8451702 8.4719486,22.8716362 L8.5504,22.8822 L8.63988152,22.8797999 C8.77041221,22.86925 8.85201811,22.8195067 9.03078766,22.6462354 L9.1014916,22.575216 C9.10136413,22.5704583 9.1013,22.565686 9.1013,22.5609 C9.1013,22.2659 9.3433,22.0249 9.6373,22.0249 C9.68211707,22.0249 9.72572579,22.0305003 9.7674531,22.0410384 L9.82019257,22.0142812 L9.82019257,22.0142812 C10.0873083,21.879827 10.3818827,21.8112 10.7144,21.8112 C11.3470046,21.8112 11.7150412,21.9975163 12.1747207,22.4293839 L12.3157301,22.5663699 L12.4879504,22.7311108 C12.6323916,22.8584021 12.7089238,22.8822 12.8564,22.8822 C13.0288202,22.8822 13.1045181,22.8497128 13.3053828,22.6569603 L13.3876916,22.575216 C13.3875641,22.5704583 13.3875,22.565686 13.3875,22.5609 C13.3875,22.2659 13.6295,22.0249 13.9225,22.0249 C13.9671098,22.0249 14.0105075,22.030411 14.0520398,22.0407864 L14.1069898,22.0133796 L14.1069898,22.0133796 C14.3746406,21.8795542 14.6684437,21.8112 15.0004,21.8112 C15.6330046,21.8112 16.0010412,21.9975163 16.4607207,22.4293839 L16.6017301,22.5663699 L16.7739504,22.7311108 C16.9183916,22.8584021 16.9949238,22.8822 17.1424,22.8822 C17.3148202,22.8822 17.3905181,22.8497128 17.5902386,22.6581008 L17.6728501,22.5772541 C17.6726838,22.5718215 17.6726,22.5663698 17.6726,22.5609 C17.6726,22.2659 17.9146,22.0249 18.2086,22.0249 C18.2530585,22.0249 18.296328,22.030411 18.3377513,22.0407864 L18.3947703,22.0124923 L18.3947703,22.0124923 C18.6629267,21.879302 18.9548495,21.8112 19.2854,21.8112 C19.9177395,21.8112 20.2858265,21.9974508 20.7453879,22.4289914 L20.8863563,22.5658713 L20.9804815,22.6583507 C21.1800467,22.8497069 21.2558199,22.8822 21.4284,22.8822 C21.5996105,22.8822 21.6752625,22.8498816 21.8724969,22.6614782 L21.9590501,22.5772541 C21.9588838,22.5718215 21.9588,22.5663698 21.9588,22.5609 C21.9588,22.2659 22.2008,22.0249 22.4938,22.0249 C22.5384098,22.0249 22.5818075,22.030411 22.6233398,22.0407864 L22.6797703,22.0124923 L22.6797703,22.0124923 C22.9478063,21.8793618 23.2407826,21.8112 23.5714,21.8112 C24.2037395,21.8112 24.5718265,21.9974508 25.0313879,22.4289914 L25.1723563,22.5658713 L25.2664815,22.6583507 C25.4660467,22.8497069 25.5418199,22.8822 25.7144,22.8822 C25.8817504,22.8822 25.9567855,22.8495842 26.156307,22.6580526 L26.2440184,22.5721555 C26.2439396,22.5684124 26.2439,22.5646605 26.2439,22.5609 C26.2439,22.2659 26.4859,22.0249 26.7799,22.0249 C26.8245098,22.0249 26.8679075,22.030411 26.9094398,22.0407864 L26.9649898,22.0133796 L26.9649898,22.0133796 C27.2315055,21.8801218 27.5249268,21.8112 27.8514,21.8112 C28.3876438,21.8112 28.8059476,21.9871041 29.1688999,22.3021714 C29.2804822,22.3956049 29.4377248,22.4169997 29.5677793,22.3573815 C29.6730678,22.3087255 29.745972,22.2184018 29.7709221,22.1123155 L29.7804,22.0302 L29.7780377,21.9598803 C29.7676437,21.8262153 29.7185449,21.7450956 29.5465484,21.5673185 L29.4650658,21.4847755 L29.3262731,21.3422201 L29.3104543,21.3238586 C29.2128688,21.4258656 29.0753968,21.4894 28.9231,21.4894 C28.6271,21.4894 28.3881,21.2494 28.3881,20.9534 C28.3881,20.7091108 28.5508882,20.5029645 28.7741567,20.4383931 C28.7298532,20.2758173 28.7094,20.095913 28.7094,19.8872 C28.7094,19.2548605 28.8956508,18.8867735 29.3271914,18.4272121 L29.4640713,18.2862437 L29.5562996,18.1923697 C29.7479069,17.9925533 29.7804,17.9167801 29.7804,17.7442 C29.7804,17.572193 29.7479958,17.4966531 29.5568351,17.2973107 L29.464821,17.2036563 C29.4590886,17.1993199 29.4591,17.2013586 29.4591,17.2034 C29.4591,17.4994 29.2191,17.7394 28.9231,17.7394 C28.6271,17.7394 28.3881,17.4994 28.3881,17.2034 C28.3881,16.9074 28.6271,16.6674 28.9231,16.6674 C28.9534133,16.6674 28.9831392,16.6699171 29.0120802,16.6747535 C28.8031227,16.3657925 28.7094,16.0499957 28.7094,15.6012 C28.7094,14.9685954 28.8957163,14.6005588 29.3275839,14.1408793 L29.4645699,13.9998699 L29.5566717,13.9061722 C29.7480085,13.7067484 29.7804,13.6312556 29.7804,13.4592 C29.7804,13.2866199 29.7479069,13.2108467 29.5565507,13.0112815 L29.4644462,12.9175313 L29.3271914,12.7761879 C28.8956508,12.3166265 28.7094,11.9485395 28.7094,11.3162 C28.7094,10.8611241 28.8057641,10.5427953 29.020437,10.2288966 C28.9901254,10.2362559 28.9569795,10.2394 28.9231,10.2394 C28.6271,10.2394 28.3881,9.9994 28.3881,9.7034 C28.3881,9.4074 28.6271,9.1674 28.9231,9.1674 C29.2191,9.1674 29.4591,9.4074 29.4591,9.7034 L29.4580462,9.72073983 L29.4644462,9.71411869 L29.5568351,9.6200893 C29.7479958,9.42074689 29.7804,9.34520705 29.7804,9.1732 C29.7804,9.00061989 29.7479069,8.9248467 29.5565507,8.7252815 L29.4644462,8.63153131 L29.3271914,8.49018791 C28.8956508,8.03062647 28.7094,7.66253948 28.7094,7.0302 C28.7094,6.81699905 28.7305727,6.63383789 28.7751809,6.46708219 C28.5518402,6.40503893 28.3881,6.19840241 28.3881,5.9534 C28.3881,5.6574 28.6271,5.4174 28.9231,5.4174 C29.0767381,5.4174 29.2152892,5.4820585 29.3130234,5.58564553 L29.3271914,5.57021209 L29.3271914,5.57021209 L29.4640713,5.42924369 L29.5562996,5.33536972 C29.7479069,5.1355533 29.7804,5.05978011 29.7804,4.8872 C29.7804,4.71519295 29.7479958,4.63965311 29.5568351,4.4403107 L29.464821,4.34665631 L29.3275032,4.20524514 C28.8957614,3.74545067 28.7094,3.37705508 28.7094,2.7442 L28.711145,2.69578345 C28.5209129,2.61358975 28.3881,2.42405455 28.3881,2.2034 C28.3881,1.9074 28.6271,1.6674 28.9231,1.6674 C28.9541265,1.6674 28.9845377,1.6700369 29.0141218,1.67509879 C29.0675544,1.58750965 29.1303876,1.50314413 29.2002236,1.42068427 C29.2935382,1.30964318 29.3147309,1.15398006 29.255452,1.02569754 C29.1954515,0.896795309 29.0621876,0.8112 28.9234,0.8112 L28.8530705,0.813557799 C28.7193945,0.823937681 28.6382728,0.873016811 28.4596774,1.04545322 L28.3767313,1.12715384 L28.2353879,1.26440858 C27.7758265,1.69594919 27.4077395,1.8822 26.7754,1.8822 C26.1425449,1.8822 25.7741493,1.69583862 25.3143549,1.26409681 L25.1733187,1.12715384 L25.0792893,1.03476486 C24.8799469,0.843604215 24.804407,0.8112 24.6324,0.8112 C24.4598199,0.8112 24.3840467,0.843693099 24.1844815,1.0350493 L24.0907313,1.12715384 L23.9493879,1.26440858 C23.4898265,1.69594919 23.1217395,1.8822 22.4894,1.8822 C21.8570605,1.8822 21.4889735,1.69594919 21.0294121,1.26440858 L20.8884437,1.12752866 L20.7943185,1.0350493 C20.5947533,0.843693099 20.5189801,0.8112 20.3464,0.8112 C20.174393,0.8112 20.0988531,0.843604215 19.8995107,1.03476486 L19.8058563,1.12677901 L19.6647269,1.2638152 C19.2046507,1.69583862 18.8362551,1.8822 18.2034,1.8822 C17.5710605,1.8822 17.2029735,1.69594919 16.7434121,1.26440858 L16.6024437,1.12752866 L16.5083185,1.0350493 C16.3087533,0.843693099 16.2329801,0.8112 16.0604,0.8112 C15.8883444,0.8112 15.8128516,0.843591526 15.6134278,1.03492831 L15.5197301,1.12703009 L15.3787207,1.26401613 C14.9190412,1.69588372 14.5510046,1.8822 13.9184,1.8822 C13.2855449,1.8822 12.9171493,1.69583862 12.4573549,1.26409681 L12.3163187,1.12715384 L12.2222893,1.03476486 C12.0229469,0.843604215 11.947407,0.8112 11.7754,0.8112 C11.6062981,0.8112 11.5317799,0.843264236 11.3344489,1.03296324 L11.2417255,1.12428002 L11.1004537,1.26175853 C10.6398542,1.69518177 10.2704873,1.8822 9.6374,1.8822 C9.11255908,1.8822 8.70418034,1.71251354 8.31486569,1.39197523 C8.20469936,1.29806839 8.05137819,1.27671987 7.9213672,1.3363201 C7.81766441,1.38412265 7.74422708,1.47627466 7.71900025,1.58447904 L7.7094,1.6682 L7.71136627,1.71401274 C7.89878462,1.7977102 8.0301,1.98604342 8.0301,2.2038 L8.02904616,2.21873983 L8.16859734,2.36187388 C8.59279259,2.81461373 8.7804,3.18779336 8.7804,3.8162 C8.7804,4.4480116 8.59410682,4.8156457 8.16221361,5.27528402 L8.02521834,5.41629182 L7.9334952,5.50958381 L7.873775,5.5744 C7.97065,5.6714 8.0304,5.8054 8.0304,5.9534 C8.0304,6.1037871 7.96870704,6.23971894 7.86905862,6.33706458 C7.88971899,6.36046717 7.91492669,6.38737407 7.94353126,6.41697538 L8.02523009,6.49986991 L8.16221613,6.64087926 C8.59408372,7.10055878 8.7804,7.46859542 8.7804,8.1012 C8.7804,8.73494984 8.59065709,9.1071908 8.1168671,9.60515077 L8.03000543,9.69358092 C8.03006839,9.6969792 8.0301,9.70038565 8.0301,9.7038 C8.0301,9.91965789 7.90018531,10.1069453 7.71436815,10.1912543 L7.7094,10.2442 C7.7094,10.4167801 7.7418931,10.4925533 7.9332493,10.6921185 L8.02535384,10.7858687 L8.16260858,10.9272121 C8.59414919,11.3867735 8.7804,11.7548605 8.7804,12.3872 C8.7804,12.7235389 8.70903744,13.022006 8.57330076,13.2910616 L8.48418976,13.4490334 L8.461,13.477 L8.39805859,13.5709351 L8.32184335,13.670236 L8.32184335,13.670236 L8.23659673,13.7702809 L8.04320316,13.9767565 L7.992,14.021 L7.88598077,14.1322258 L7.83909686,14.1848002 L7.83909686,14.1848002 L7.80265115,14.2300879 L7.77322689,14.2720107 C7.73127346,14.335869 7.7094,14.4099538 7.7094,14.5302 C7.7094,14.702207 7.74180422,14.7777469 7.93296486,14.9770893 L8.16229681,15.2121549 C8.59403862,15.6719493 8.7804,16.0403449 8.7804,16.6732 C8.7804,16.8247416 8.76765018,16.9636812 8.73646009,17.0981251 L8.71504616,17.1717398 L8.70604616,17.2027398 L8.70304616,17.2157398 L8.69891247,17.2313708 L8.69891247,17.2313708 Z M18.2092,14.5249 C18.5052,14.5249 18.7442,14.7649 18.7442,15.0609 C18.7442,15.3569 18.5052,15.5969 18.2092,15.5969 C17.9132,15.5969 17.6732,15.3569 17.6732,15.0609 C17.6732,14.7649 17.9132,14.5249 18.2092,14.5249 Z M22.4944,14.5249 C22.7914,14.5249 23.0304,14.7649 23.0304,15.0609 C23.0304,15.3569 22.7914,15.5969 22.4944,15.5969 C22.1984,15.5969 21.9594,15.3569 21.9594,15.0609 C21.9594,14.7649 22.1984,14.5249 22.4944,14.5249 Z M26.7805,14.5249 C27.0765,14.5249 27.3165,14.7649 27.3165,15.0609 C27.3165,15.3569 27.0765,15.5969 26.7805,15.5969 C26.4845,15.5969 26.2445,15.3569 26.2445,15.0609 C26.2445,14.7649 26.4845,14.5249 26.7805,14.5249 Z M9.638,14.5249 C9.934,14.5249 10.173,14.7649 10.173,15.0609 C10.173,15.3569 9.934,15.5969 9.638,15.5969 C9.341,15.5969 9.102,15.3569 9.102,15.0609 C9.102,14.7649 9.341,14.5249 9.638,14.5249 Z M13.9231,14.5249 C14.2191,14.5249 14.4591,14.7649 14.4591,15.0609 C14.4591,15.3569 14.2191,15.5969 13.9231,15.5969 C13.6271,15.5969 13.3881,15.3569 13.3881,15.0609 C13.3881,14.7649 13.6271,14.5249 13.9231,14.5249 Z M28.9231,12.9174 C29.2191,12.9174 29.4591,13.1574 29.4591,13.4534 C29.4591,13.7494 29.2191,13.9894 28.9231,13.9894 C28.6271,13.9894 28.3881,13.7494 28.3881,13.4534 C28.3881,13.1574 28.6271,12.9174 28.9231,12.9174 Z M11.7805,12.9174 C12.0765,12.9174 12.3165,13.1574 12.3165,13.4534 C12.3165,13.7494 12.0765,13.9894 11.7805,13.9894 C11.4845,13.9894 11.2445,13.7494 11.2445,13.4534 C11.2445,13.1574 11.4845,12.9174 11.7805,12.9174 Z M16.0667,12.9174 C16.3627,12.9174 16.6017,13.1574 16.6017,13.4534 C16.6017,13.7494 16.3627,13.9894 16.0667,13.9894 C15.7697,13.9894 15.5307,13.7494 15.5307,13.4534 C15.5307,13.1574 15.7697,12.9174 16.0667,12.9174 Z M20.3518,12.9174 C20.6478,12.9174 20.8878,13.1574 20.8878,13.4534 C20.8878,13.7494 20.6478,13.9894 20.3518,13.9894 C20.0558,13.9894 19.8168,13.7494 19.8168,13.4534 C19.8168,13.1574 20.0558,12.9174 20.3518,12.9174 Z M24.638,12.9174 C24.934,12.9174 25.173,13.1574 25.173,13.4534 C25.173,13.7494 24.934,13.9894 24.638,13.9894 C24.341,13.9894 24.102,13.7494 24.102,13.4534 C24.102,13.1574 24.341,12.9174 24.638,12.9174 Z M18.2092,10.7749 C18.5052,10.7749 18.7442,11.0149 18.7442,11.3109 C18.7442,11.6069 18.5052,11.8469 18.2092,11.8469 C17.9132,11.8469 17.6732,11.6069 17.6732,11.3109 C17.6732,11.0149 17.9132,10.7749 18.2092,10.7749 Z M9.638,10.7749 C9.934,10.7749 10.173,11.0149 10.173,11.3109 C10.173,11.6069 9.934,11.8469 9.638,11.8469 C9.341,11.8469 9.102,11.6069 9.102,11.3109 C9.102,11.0149 9.341,10.7749 9.638,10.7749 Z M26.7805,10.7749 C27.0765,10.7749 27.3165,11.0149 27.3165,11.3109 C27.3165,11.6069 27.0765,11.8469 26.7805,11.8469 C26.4845,11.8469 26.2445,11.6069 26.2445,11.3109 C26.2445,11.0149 26.4845,10.7749 26.7805,10.7749 Z M13.9231,10.7749 C14.2191,10.7749 14.4591,11.0149 14.4591,11.3109 C14.4591,11.6069 14.2191,11.8469 13.9231,11.8469 C13.6271,11.8469 13.3881,11.6069 13.3881,11.3109 C13.3881,11.0149 13.6271,10.7749 13.9231,10.7749 Z M22.4944,10.7749 C22.7914,10.7749 23.0304,11.0149 23.0304,11.3109 C23.0304,11.6069 22.7914,11.8469 22.4944,11.8469 C22.1984,11.8469 21.9594,11.6069 21.9594,11.3109 C21.9594,11.0149 22.1984,10.7749 22.4944,10.7749 Z M20.3518,9.1674 C20.6478,9.1674 20.8878,9.4074 20.8878,9.7034 C20.8878,9.9994 20.6478,10.2394 20.3518,10.2394 C20.0558,10.2394 19.8168,9.9994 19.8168,9.7034 C19.8168,9.4074 20.0558,9.1674 20.3518,9.1674 Z M16.0667,9.1674 C16.3627,9.1674 16.6017,9.4074 16.6017,9.7034 C16.6017,9.9994 16.3627,10.2394 16.0667,10.2394 C15.7697,10.2394 15.5307,9.9994 15.5307,9.7034 C15.5307,9.4074 15.7697,9.1674 16.0667,9.1674 Z M24.638,9.1674 C24.934,9.1674 25.173,9.4074 25.173,9.7034 C25.173,9.9994 24.934,10.2394 24.638,10.2394 C24.341,10.2394 24.102,9.9994 24.102,9.7034 C24.102,9.4074 24.341,9.1674 24.638,9.1674 Z M11.7805,9.1674 C12.0765,9.1674 12.3165,9.4074 12.3165,9.7034 C12.3165,9.9994 12.0765,10.2394 11.7805,10.2394 C11.4845,10.2394 11.2445,9.9994 11.2445,9.7034 C11.2445,9.4074 11.4845,9.1674 11.7805,9.1674 Z M13.9231,7.0249 C14.2191,7.0249 14.4591,7.2649 14.4591,7.5609 C14.4591,7.8569 14.2191,8.0969 13.9231,8.0969 C13.6271,8.0969 13.3881,7.8569 13.3881,7.5609 C13.3881,7.2649 13.6271,7.0249 13.9231,7.0249 Z M18.2092,7.0249 C18.5052,7.0249 18.7442,7.2649 18.7442,7.5609 C18.7442,7.8569 18.5052,8.0969 18.2092,8.0969 C17.9132,8.0969 17.6732,7.8569 17.6732,7.5609 C17.6732,7.2649 17.9132,7.0249 18.2092,7.0249 Z M26.7805,7.0249 C27.0765,7.0249 27.3165,7.2649 27.3165,7.5609 C27.3165,7.8569 27.0765,8.0969 26.7805,8.0969 C26.4845,8.0969 26.2445,7.8569 26.2445,7.5609 C26.2445,7.2649 26.4845,7.0249 26.7805,7.0249 Z M9.638,7.0249 C9.934,7.0249 10.173,7.2649 10.173,7.5609 C10.173,7.8569 9.934,8.0969 9.638,8.0969 C9.341,8.0969 9.102,7.8569 9.102,7.5609 C9.102,7.2649 9.341,7.0249 9.638,7.0249 Z M22.4944,7.0249 C22.7914,7.0249 23.0304,7.2649 23.0304,7.5609 C23.0304,7.8569 22.7914,8.0969 22.4944,8.0969 C22.1984,8.0969 21.9594,7.8569 21.9594,7.5609 C21.9594,7.2649 22.1984,7.0249 22.4944,7.0249 Z M20.3518,5.4174 C20.6478,5.4174 20.8878,5.6574 20.8878,5.9534 C20.8878,6.2494 20.6478,6.4894 20.3518,6.4894 C20.0558,6.4894 19.8168,6.2494 19.8168,5.9534 C19.8168,5.6574 20.0558,5.4174 20.3518,5.4174 Z M16.0667,5.4174 C16.3627,5.4174 16.6017,5.6574 16.6017,5.9534 C16.6017,6.2494 16.3627,6.4894 16.0667,6.4894 C15.7697,6.4894 15.5307,6.2494 15.5307,5.9534 C15.5307,5.6574 15.7697,5.4174 16.0667,5.4174 Z M11.7805,5.4174 C12.0765,5.4174 12.3165,5.6574 12.3165,5.9534 C12.3165,6.2494 12.0765,6.4894 11.7805,6.4894 C11.4845,6.4894 11.2445,6.2494 11.2445,5.9534 C11.2445,5.6574 11.4845,5.4174 11.7805,5.4174 Z M24.638,5.4174 C24.934,5.4174 25.173,5.6574 25.173,5.9534 C25.173,6.2494 24.934,6.4894 24.638,6.4894 C24.341,6.4894 24.102,6.2494 24.102,5.9534 C24.102,5.6574 24.341,5.4174 24.638,5.4174 Z M26.7805,3.2749 C27.0765,3.2749 27.3165,3.5149 27.3165,3.8109 C27.3165,4.1069 27.0765,4.3469 26.7805,4.3469 C26.4845,4.3469 26.2445,4.1069 26.2445,3.8109 C26.2445,3.5149 26.4845,3.2749 26.7805,3.2749 Z M22.4944,3.2749 C22.7914,3.2749 23.0304,3.5149 23.0304,3.8109 C23.0304,4.1069 22.7914,4.3469 22.4944,4.3469 C22.1984,4.3469 21.9594,4.1069 21.9594,3.8109 C21.9594,3.5149 22.1984,3.2749 22.4944,3.2749 Z M18.2092,3.2749 C18.5052,3.2749 18.7442,3.5149 18.7442,3.8109 C18.7442,4.1069 18.5052,4.3469 18.2092,4.3469 C17.9132,4.3469 17.6732,4.1069 17.6732,3.8109 C17.6732,3.5149 17.9132,3.2749 18.2092,3.2749 Z M13.9231,3.2749 C14.2191,3.2749 14.4591,3.5149 14.4591,3.8109 C14.4591,4.1069 14.2191,4.3469 13.9231,4.3469 C13.6271,4.3469 13.3881,4.1069 13.3881,3.8109 C13.3881,3.5149 13.6271,3.2749 13.9231,3.2749 Z M9.638,3.2749 C9.934,3.2749 10.173,3.5149 10.173,3.8109 C10.173,4.1069 9.934,4.3469 9.638,4.3469 C9.341,4.3469 9.102,4.1069 9.102,3.8109 C9.102,3.5149 9.341,3.2749 9.638,3.2749 Z M11.7805,1.6674 C12.0765,1.6674 12.3165,1.9074 12.3165,2.2034 C12.3165,2.4994 12.0765,2.7394 11.7805,2.7394 C11.4845,2.7394 11.2445,2.4994 11.2445,2.2034 C11.2445,1.9074 11.4845,1.6674 11.7805,1.6674 Z M16.0667,1.6674 C16.3627,1.6674 16.6017,1.9074 16.6017,2.2034 C16.6017,2.4994 16.3627,2.7394 16.0667,2.7394 C15.7697,2.7394 15.5307,2.4994 15.5307,2.2034 C15.5307,1.9074 15.7697,1.6674 16.0667,1.6674 Z M20.3518,1.6674 C20.6478,1.6674 20.8878,1.9074 20.8878,2.2034 C20.8878,2.4994 20.6478,2.7394 20.3518,2.7394 C20.0558,2.7394 19.8168,2.4994 19.8168,2.2034 C19.8168,1.9074 20.0558,1.6674 20.3518,1.6674 Z M24.638,1.6674 C24.934,1.6674 25.173,1.9074 25.173,2.2034 C25.173,2.4994 24.934,2.7394 24.638,2.7394 C24.341,2.7394 24.102,2.4994 24.102,2.2034 C24.102,1.9074 24.341,1.6674 24.638,1.6674 Z" id="Combined-Shape" fill="#58595B"></path>
    </g>
</svg>